<svg width="64" height="62" viewBox="0 0 64 62" fill="none" xmlns="http://www.w3.org/2000/svg">
<path d="M63.9887 11.0087C63.6362 12.035 63.6387 13.1187 63.5 14.1775C62.9925 18.0525 62.5212 21.9275 62.0362 25.8025C61.7737 27.9062 61.5025 30.0088 61.25 32.115C61.1112 33.2725 60.7862 33.67 59.6525 33.825C56.42 34.2688 53.1837 34.6875 49.9487 35.1188C46.0137 35.6438 42.0791 36.17 38.145 36.6975C33.9408 37.2575 29.7375 37.8158 25.535 38.3725C23.4762 38.6475 21.4187 38.94 19.3612 39.2238C18.5562 38.295 18.2425 37.1575 18.0087 35.9912C16.6887 29.4187 15.3737 22.8454 14.0637 16.2712C13.5637 13.7712 13.0837 11.2612 12.595 8.75625C12.6787 8.75625 12.7612 8.74875 12.845 8.74875C29.33 8.74958 45.8146 8.75 62.2987 8.75C63.1087 8.75 63.6425 9.06625 63.9887 9.76625V11.0087ZM25.01 32.1738C25.0037 32.1138 24.995 31.9463 24.9687 31.7825C24.4754 28.8125 23.9804 25.8425 23.4837 22.8725C23.0787 20.455 22.6825 18.0375 22.255 15.6225C22.065 14.545 21.005 14.0387 20.1475 14.5775C19.6187 14.9137 19.4225 15.505 19.5537 16.2875C20.0871 19.4625 20.6171 22.6375 21.1437 25.8125C21.5121 28.025 21.8841 30.2371 22.26 32.4487C22.4112 33.3312 23.02 33.8363 23.795 33.755C24.525 33.68 25.0175 33.0825 25.01 32.1738ZM31.9887 30.825C31.59 26.45 31.2037 22.1375 30.8025 17.8312C30.7237 16.985 30.7375 16.125 30.51 15.2987C30.4384 15.0128 30.2701 14.7605 30.0335 14.5845C29.797 14.4086 29.5069 14.32 29.2125 14.3337C28.6137 14.3337 28.1862 14.635 27.945 15.18C27.8062 15.495 27.84 15.8337 27.8687 16.165C28.085 18.65 28.3 21.135 28.5275 23.6187C28.7525 26.0825 28.9762 28.5462 29.23 31.0062C29.3225 31.9025 29.95 32.4413 30.7012 32.3725C31.5087 32.2975 32.0125 31.6613 31.9887 30.825V30.825ZM36.1587 22.625C36.1587 24.875 36.1475 27.125 36.1587 29.365C36.1662 30.3325 36.73 30.9675 37.5275 30.99C38.3462 31.0125 38.9237 30.365 38.96 29.365C38.96 29.22 38.96 29.0737 38.96 28.9287V21.5C38.96 19.6687 38.96 17.8387 38.96 16.0075C38.96 15.105 38.5762 14.545 37.895 14.3825C36.91 14.145 36.165 14.825 36.1587 16.0075C36.15 18.215 36.1587 20.42 36.1587 22.625ZM47.25 16.165C47.295 15.0287 46.8512 14.415 46.0575 14.3312C45.25 14.25 44.6012 14.8237 44.5 15.75C44.0458 19.775 43.5954 23.8004 43.1487 27.8262C43.04 28.8025 43.5537 29.5175 44.3875 29.6037C45.1487 29.6837 45.78 29.1325 45.9012 28.1987C46.1025 26.6537 46.2637 25.105 46.4362 23.5562C46.715 21.0412 46.9925 18.5225 47.25 16.165ZM55.6437 15.82C55.6256 15.6312 55.5955 15.4437 55.5537 15.2587C55.4682 14.98 55.2952 14.7362 55.0604 14.5634C54.8257 14.3905 54.5415 14.2977 54.25 14.2987C53.5712 14.3087 53.075 14.7237 52.875 15.5187C51.965 19.1187 51.0625 22.7204 50.1675 26.3237C50.0544 26.6856 50.0807 27.0766 50.2412 27.42C50.3584 27.6784 50.5549 27.8929 50.8021 28.0322C51.0493 28.1715 51.3344 28.2286 51.6162 28.195C52.25 28.1487 52.6837 27.7225 52.8662 26.9862C53.5412 24.3112 54.2104 21.6346 54.8737 18.9562C55.1337 17.8912 55.3975 16.825 55.6475 15.82H55.6437Z" fill="#FBE303"/>
<path d="M0.0112305 1.26251C0.583731 0.451257 1.40498 0.370007 2.31748 0.387507C4.66873 0.423757 7.02123 0.397507 9.37248 0.400007C10.5087 0.400007 10.935 0.742507 11.1725 1.87376C11.6537 4.16626 12.125 6.46501 12.595 8.76126C13.0837 11.2613 13.565 13.7738 14.0637 16.2763C15.3737 22.8513 16.6887 29.4246 18.0087 35.9963C18.2425 37.1625 18.5562 38.3 19.3612 39.2288C20.78 41.2538 22.7912 42.1113 25.1975 42.1175C31.005 42.1325 36.8125 42.1175 42.62 42.1175C47.325 42.1175 52.0296 42.1175 56.7337 42.1175C57.7912 42.1175 58.42 42.6725 58.3975 43.5538C58.3936 43.8684 58.2786 44.1715 58.0727 44.4095C57.8668 44.6474 57.5833 44.8048 57.2725 44.8538C57.0459 44.884 56.8173 44.8961 56.5887 44.89C46.1387 44.89 35.6887 44.89 25.2387 44.89C20.5825 44.89 16.7387 42.0988 15.5837 37.8013C15.0837 35.9175 14.7687 33.9825 14.385 32.0675C12.5683 23.0058 10.7537 13.9417 8.94123 4.87501C8.83123 4.32626 8.86873 3.59751 8.52998 3.28626C8.15498 2.94001 7.41623 3.18751 6.83623 3.18251C5.25498 3.16876 3.67123 3.14751 2.08623 3.18251C1.22248 3.21251 0.489981 3.05626 0.0112305 2.26251V1.26251Z" fill="#454950"/>
<path d="M16.7162 54.66C16.7143 53.7475 16.8922 52.8435 17.2396 51.9997C17.5871 51.156 18.0974 50.3889 18.7413 49.7423C20.0417 48.4365 21.8077 47.7007 23.6506 47.6969C25.4935 47.6931 27.2625 48.4215 28.5683 49.722C29.2149 50.3659 29.7283 51.1308 30.0793 51.9732C30.4302 52.8155 30.6118 53.7187 30.6137 54.6313C30.6175 56.4742 29.8891 58.2431 28.5886 59.549C27.2882 60.8548 25.5222 61.5906 23.6793 61.5944C21.8364 61.5982 20.0674 60.8698 18.7616 59.5693C17.4558 58.2689 16.72 56.5029 16.7162 54.66V54.66Z" fill="#454950"/>
<path d="M58.41 54.675C58.406 56.0504 57.994 57.3937 57.2261 58.5349C56.4583 59.676 55.3691 60.5636 54.0965 61.0854C52.8239 61.6072 51.425 61.7396 50.0771 61.4659C48.7292 61.1922 47.4928 60.5248 46.5244 59.548C45.5561 58.5712 44.8993 57.3291 44.6373 55.9789C44.3753 54.6286 44.5198 53.231 45.0525 51.9629C45.5853 50.6949 46.4823 49.6134 47.63 48.8554C48.7778 48.0975 50.1246 47.6971 51.5 47.705C53.3394 47.7169 55.0991 48.457 56.3941 49.7632C57.6892 51.0695 58.414 52.8356 58.41 54.675V54.675Z" fill="#454950"/>
</svg>
