<svg width="64" height="64" viewBox="0 0 64 64" fill="none" xmlns="http://www.w3.org/2000/svg">
<path d="M0 52.0044V12.0006L0.25015 11.9243C0.322694 12.1044 0.500301 12.1357 0.650391 12.1932C4.25506 13.548 7.85972 14.9015 11.4644 16.2538C17.4096 18.4849 23.3549 20.7122 29.3001 22.9357C30.2319 23.2821 31.1262 23.7561 32.1318 23.8887C31.9592 24.1763 32.0067 24.4965 32.0067 24.8041C32.0067 34.7521 32.0067 44.7001 32.0067 54.6481C32.0067 57.4994 32.0067 60.3508 32.0067 63.2021C32.0067 63.4522 32.1231 63.7674 31.7566 63.8874C31.6765 63.8649 31.5952 63.8462 31.5189 63.8174L0 52.0044ZM16.0096 52.1382C16.0096 50.8876 15.9846 49.707 16.0221 48.5277C16.0371 48.0387 15.9183 47.7686 15.4205 47.6298C14.8627 47.4747 14.3299 47.2309 13.7845 47.027L8.00106 44.871C8.00106 46.1003 8.03233 47.2596 7.9873 48.4177C7.96604 48.9592 8.09862 49.2543 8.6502 49.3969C9.16926 49.5307 9.66331 49.7721 10.1686 49.9559L16.0096 52.1382Z" fill="#FBE303"/>
<path d="M31.7456 63.8924C32.1208 63.7674 31.9958 63.4547 31.9958 63.2071C32.0033 60.3558 32.0033 57.5044 31.9958 54.6531C31.9958 44.7059 31.9958 34.7579 31.9958 24.8091C31.9958 24.5015 31.942 24.1838 32.1208 23.8937C34.5173 23.007 36.9187 22.1366 39.3064 21.2287C40.7998 20.6609 42.3257 20.1794 43.7741 19.4966C44.1656 19.6217 43.993 19.9506 43.9942 20.1844C44.0051 24.3531 44.0076 28.5192 44.0017 32.6828V33.4544C44.1017 33.4469 44.2009 33.431 44.2981 33.4069C46.7359 32.4965 49.1761 31.5748 51.6125 30.6769C51.9703 30.5455 52.0065 30.3217 52.0065 30.0065C51.999 25.5044 51.9953 21.0052 51.9953 16.509C52.1466 16.4389 52.2942 16.3576 52.4493 16.3001C55.9181 14.9995 59.386 13.6981 62.8531 12.3958C63.1695 12.2707 63.5585 12.2707 63.7498 11.9093L64 12.0056V52.0043C55.5474 55.1725 47.0948 58.3407 38.6422 61.5088C36.4634 62.3279 34.2946 63.1696 32.1208 64H31.7456C31.7595 63.9655 31.7595 63.9269 31.7456 63.8924Z" fill="#FCEC41"/>
<path d="M43.7788 19.4966C42.3304 20.1795 40.8045 20.6609 39.3111 21.2287C36.9234 22.1316 34.522 22.9983 32.1281 23.8887C31.1275 23.7561 30.2282 23.2822 29.2964 22.9358C23.3461 20.7264 17.4 18.4991 11.4581 16.2539C7.85347 14.9024 4.2488 13.5489 0.644137 12.1932C0.490295 12.1357 0.31644 12.1044 0.243896 11.9243C0.378978 11.8681 0.510307 11.808 0.646639 11.7568C8.77319 8.71033 16.8985 5.66265 25.0225 2.61373C27.3127 1.75707 29.594 0.872909 31.8779 0H32.1281C32.3144 0.0850399 32.5033 0.181335 32.6884 0.250117L63.7546 11.9043C63.5632 12.2633 63.1742 12.272 62.8578 12.3908C59.3924 13.6989 55.9245 15.0004 52.454 16.2951C52.2989 16.3527 52.1514 16.434 52 16.504C48.199 14.8057 44.3929 13.1161 40.5994 11.4016C40.4185 11.308 40.218 11.2585 40.0143 11.2572C39.8106 11.2559 39.6095 11.3028 39.4275 11.3941C37.9265 12.0619 36.4019 12.6847 34.8897 13.3287C33.9679 13.7214 33.0511 14.1216 32.0505 14.5531C32.2319 14.6506 32.3007 14.6956 32.3757 14.7269C35.2437 15.9075 38.1179 17.0743 40.9784 18.2748C41.9165 18.6675 42.8945 18.9726 43.7788 19.4966Z" fill="#F1D900"/>
<path d="M16.0037 52.1369L10.1689 49.9559C9.66861 49.7671 9.16831 49.5307 8.6505 49.3969C8.09891 49.2543 7.96633 48.9592 7.9876 48.4177C8.03262 47.2597 8.00136 46.1004 8.00136 44.871L13.7786 47.027C14.3239 47.2309 14.8567 47.4748 15.4146 47.6298C15.9149 47.7686 16.0312 48.0388 16.0162 48.5278C15.9786 49.7071 16.0037 50.8864 16.0037 52.1369Z" fill="#454950"/>
<path d="M43.7786 19.4966C42.8943 18.9776 41.9162 18.6725 40.9782 18.2798C38.1177 17.0792 35.2435 15.9124 32.3755 14.7319C32.3004 14.7006 32.2317 14.6556 32.0503 14.5581C33.0509 14.1266 33.9677 13.7264 34.8895 13.3337C36.4017 12.6897 37.9251 12.0669 39.4272 11.3991C39.6093 11.3078 39.8104 11.2609 40.0141 11.2622C40.2178 11.2635 40.4183 11.313 40.5992 11.4066C44.3927 13.1211 48.1987 14.8107 51.9998 16.509C51.9998 21.0111 52.0035 25.5103 52.011 30.0066C52.011 30.3217 51.9748 30.5456 51.6171 30.6769C49.1743 31.5748 46.7391 32.4965 44.3027 33.4069C44.2054 33.4311 44.1062 33.4469 44.0062 33.4544V32.6778C44.0062 28.5092 44.0037 24.3431 43.9987 20.1794C43.9975 19.9456 44.1701 19.6217 43.7786 19.4966Z" fill="#454950"/>
</svg>
