<svg width="64" height="61" viewBox="0 0 64 61" fill="none" xmlns="http://www.w3.org/2000/svg">
<path d="M0.0150146 57.485C0.732515 55.7188 1.26501 53.8875 1.87001 52.0813C3.89918 46.0354 5.91543 39.985 7.91876 33.93C8.43751 32.375 8.96501 32 10.6138 32C11.4463 32 12.28 32.0213 13.1138 31.9913C13.515 31.9775 13.7388 32.0875 13.9325 32.4675C17.465 39.2863 22.25 45.1375 27.875 50.3288C30.3063 52.5788 33.7625 52.5225 36.1788 50.2825C41.31 45.5325 45.7238 40.195 49.1988 34.1075C49.5175 33.5475 49.8238 32.9825 50.1013 32.3975C50.2463 32.0888 50.4275 31.98 50.7688 31.9888C51.7463 32.0125 52.725 31.9888 53.7038 31.9975C54.9325 31.9975 55.59 32.4688 55.9838 33.6363C56.825 36.1363 57.6538 38.6363 58.4838 41.145C60.2446 46.4267 62.0059 51.7079 63.7675 56.9888C63.8238 57.1563 63.8125 57.3638 63.9888 57.4888V58.6138C63.335 59.82 62.2725 60.0175 60.9963 60.0088C54.5463 59.965 48.0963 59.9888 41.645 59.9888C28.5783 59.9888 15.5117 59.9888 2.44501 59.9888C1.75626 59.9888 1.10876 59.91 0.612515 59.3838C0.400201 59.1363 0.20077 58.878 0.0150146 58.61V57.485Z" fill="#FBE303"/>
<path d="M50.0006 18.1687C49.9394 21.0054 49.3941 23.8108 48.3881 26.4637C46.0768 32.69 42.3181 37.9925 37.9018 42.875C36.5293 44.4134 35.079 45.8807 33.5568 47.2712C32.4918 48.23 31.5118 48.2475 30.4681 47.2787C25.5093 42.6737 21.1931 37.5487 17.9406 31.5862C16.0768 28.1687 14.7218 24.5687 14.1706 20.685C12.9231 11.9175 18.2506 3.42749 26.6756 0.819988C35.8006 -2.00001 45.6031 2.85624 48.8756 11.8212C49.6256 13.8575 49.9618 15.9562 50.0006 18.1687ZM32.0006 26C33.5841 26.0027 35.1327 25.5354 36.4505 24.6574C37.7682 23.7793 38.7957 22.53 39.4029 21.0675C40.01 19.6051 40.1695 17.9953 39.8612 16.4422C39.5528 14.889 38.7905 13.4623 37.6707 12.3427C36.551 11.2231 35.1241 10.461 33.5709 10.1529C32.0177 9.8448 30.408 10.0046 28.9457 10.612C27.4833 11.2194 26.2341 12.2471 25.3563 13.5649C24.4784 14.8828 24.0114 16.4315 24.0143 18.015C24.0206 20.131 24.8641 22.1586 26.3605 23.6548C27.8569 25.1509 29.8846 25.9941 32.0006 26V26Z" fill="#454950"/>
<path d="M32.0001 26C30.4165 26 28.8686 25.53 27.5524 24.6496C26.2362 23.7693 25.2108 22.5181 24.6062 21.0545C24.0016 19.5909 23.8449 17.9809 24.1561 16.4282C24.4672 14.8756 25.2321 13.4501 26.3539 12.3325C27.4757 11.2149 28.904 10.4554 30.4578 10.1501C32.0116 9.8448 33.6211 10.0075 35.0824 10.6176C36.5437 11.2277 37.791 12.2578 38.6664 13.5773C39.5419 14.8968 40.006 16.4465 40.0001 18.03C39.9895 20.1457 39.1423 22.1713 37.6434 23.6646C36.1446 25.1578 34.1158 25.9974 32.0001 26V26Z" fill="#FEFEFE"/>
</svg>
