<svg width="62" height="64" viewBox="0 0 62 64" fill="none" xmlns="http://www.w3.org/2000/svg">
<path d="M25.625 63.99C25.3075 63.7663 24.9212 63.7975 24.5675 63.7125C22.3249 63.1718 20.3173 61.9201 18.8448 60.1443C17.3722 58.3685 16.5137 56.164 16.3975 53.86C16.375 53.4 16.2175 53.33 15.8113 53.3313C12.2938 53.3463 8.77583 53.3463 5.2575 53.3313C2.7575 53.3238 0.8625 51.785 0.45875 49.3763C0.18 47.715 0.70875 46.2775 1.9775 45.1688C4.405 43.0438 6.2375 40.5125 7.33 37.4638C8.03301 35.5019 8.38957 33.4328 8.38375 31.3488C8.38375 28.9538 8.38375 26.5592 8.38375 24.165C8.4 15.08 14.52 7.55126 23.4225 5.69501C25.8963 5.18001 28.38 5.23626 30.8587 5.74251C31.2787 5.82751 31.2337 5.99251 31.1087 6.28751C30.0579 8.74752 29.5874 11.4164 29.7337 14.0875C30.1187 20.7988 33.2413 25.89 38.9463 29.405C40.8788 30.595 43 31.32 45.2325 31.7C45.6287 31.7663 45.7225 31.9038 45.7438 32.285C46.0225 37.21 47.96 41.3663 51.6087 44.695C52.5687 45.57 53.3975 46.5 53.6087 47.8338C54.0762 50.8238 51.9512 53.31 48.8775 53.3338C45.4837 53.355 42.0912 53.3338 38.6975 53.3338C37.73 53.3338 37.73 53.3338 37.6425 54.31C37.4476 56.4485 36.6107 58.478 35.2417 60.1324C33.8727 61.7867 32.0355 62.9885 29.9713 63.58C29.4413 63.7288 28.9037 63.85 28.3687 63.9838L25.625 63.99Z" fill="#FBE303"/>
<path d="M49.8663 0.00875854C50.5413 0.168759 51.2225 0.310009 51.8925 0.492509C57.8463 2.11751 62.01 7.78251 61.6925 13.8163C61.355 20.2188 56.84 25.4 50.66 26.475C43.2225 27.77 36.16 22.5938 35.1488 15.11C34.2 8.08626 38.9675 1.52251 45.9425 0.235009C46.1688 0.193759 46.4425 0.235009 46.6175 0.0125085L49.8663 0.00875854Z" fill="#454950"/>
</svg>
